<?xml version="1.0" encoding="utf-8"?>
<svg width="2048px" height="640px" viewBox="0 0 2048 640" version="1.1" xmlns:xlink="http://www.w3.org/1999/xlink" xmlns="http://www.w3.org/2000/svg">
  <defs>
    <path d="M2048 0L2048 0L2048 640L0 640L0 0L2048 0Z" id="path_1" />
    <clipPath id="clip_1">
      <use xlink:href="#path_1" clip-rule="evenodd" fill-rule="evenodd" />
    </clipPath>
  </defs>
  <g id="2048x640">
    <path d="M2048 0L2048 0L2048 640L0 640L0 0L2048 0Z" id="2048x640" fill="#FFFFFF" stroke="none" />
    <path d="M-12 -24L2104 -24L2104 695L-12 695L-12 -24Z" id="Rectangle" fill="#A8AD00" fill-rule="evenodd" stroke="none" clip-path="url(#clip_1)" />
    <path d="M1871 564.005C1874.93 587.15 1875.67 602.683 1876.08 617.557C1889.77 631.423 1901.15 646.5 1911.91 662.796C1922.52 678.749 1931.26 695.816 1939.29 713.351C1942.26 719.864 1945.57 722.224 1952.36 720.417C1959.16 718.596 1980.08 713.008 1980.08 713.008C1982.82 711.916 1983.72 710.249 1982.4 706.866C1970.93 678.546 1962.46 664.883 1944.53 639.743C1923.93 610.68 1899.31 585.063 1871 564.005M2123.32 858.987C2117.82 859.656 2112.34 860.144 2106.87 860.534C2061.43 863.781 2015.84 861.67 1971.07 854.032C1926.32 846.36 1882.42 833.121 1841.32 813.212C1805.43 795.778 1771.62 773.033 1743.1 744.498C1714.32 739.85 1694.37 743.411 1685.31 745.85C1688.5 757.438 1687.5 768.608 1682.29 778.239C1676.78 788.51 1667.03 796.175 1654.11 800.419C1647.29 802.634 1640.45 803.582 1633.78 803.227C1614.77 802.202 1599.89 790.893 1594 772.943C1590.2 761.382 1590.93 749.836 1596.13 739.558C1601.84 728.234 1612.47 719.58 1626.09 715.12C1632.89 712.876 1639.61 711.943 1646.04 712.27C1664.02 713.19 1673.81 724.632 1676.53 728.158C1676.71 728.381 1676.87 728.604 1677.02 728.841C1678.56 731.07 1680.24 732.401 1684.34 731.398C1697.19 728.304 1713.24 727.593 1720.88 727.97C1726.09 728.234 1727.15 727.503 1723.29 722.667C1715.59 713.678 1702.12 693.351 1701.11 691.602C1698.78 687.902 1691.45 681.317 1684.45 678.23L1684.51 678.23C1660.71 667.471 1634.2 653.005 1616.55 640.804C1579.6 635.926 1547.73 618.059 1522.12 584.333C1502.16 558.056 1488.12 524.385 1480.68 486.742C1455.05 482.68 1429.41 477.614 1404.22 469.858C1395.88 467.287 1386.34 463.831 1378.79 460.883C1367.84 456.633 1347.78 448.354 1338.71 445.685C1316.07 439.749 1293.76 434.926 1272.08 431.143C1212.62 454.793 1163.41 464.765 1118.35 462.319C1074.99 459.977 1034.95 446.208 996.231 420.3C988.482 414.928 992.618 410.092 998.728 407.729C1060.22 384.971 1113.11 375.104 1160.03 377.64C1204.81 380.044 1245.03 393.514 1282.74 418.663C1294.06 420.746 1305.53 423.129 1317.11 425.77C1311.71 421.561 1306.4 417.213 1301.39 412.565C1276.65 389.675 1257.43 362.045 1242.12 332.814C1237.6 324.445 1232.97 321.859 1227.04 321.309L1227.06 321.309C1117.52 310.543 1079.26 275.597 994.418 185.47C994.104 185.142 994.006 184.627 994.195 184.222C994.376 183.79 994.773 183.498 995.234 183.47C1005.42 183.01 1015.8 183.08 1026.1 183.63C1131.19 189.309 1223.43 245.237 1247.82 317.309C1264.59 348.687 1285.54 377.829 1312.07 400.622C1330.52 416.635 1351.63 428.996 1374.1 438.313C1379.48 440.271 1383.82 438.264 1381.1 432.39C1376.3 421.603 1371.77 409.673 1367.58 396.81C1298.04 292.851 1271.04 213.601 1324.22 98.708C1324.4 98.269 1324.83 98.0112 1325.3 98.0112C1325.73 97.9554 1326.17 98.2829 1326.36 98.7219C1374.4 204.033 1417.47 319.874 1380.5 390.573C1388.08 414.064 1396.56 434.501 1406.03 449.365C1407.29 449.734 1408.57 450.138 1409.85 450.48C1431.7 456.34 1454.19 460.193 1476.95 463.134C1473.33 432.85 1473.66 400.636 1478.38 367.975C1478.45 367.516 1478.78 367.132 1479.23 367C1479.69 366.881 1480.15 367.028 1480.46 367.369C1565.06 465.893 1610.52 548.676 1622.39 626.24C1636.38 636.581 1652.42 646.49 1670.81 655.869C1676.67 658.851 1682.62 656.015 1679.29 647.695C1678.34 645.27 1670.8 624.561 1667.96 610.743C1665.45 598.374 1663.55 587.643 1662.4 576.898C1661.15 565.323 1660.55 542.21 1660.69 536.719C1660.9 528.273 1660.92 520.378 1661.24 513.396C1654.84 512.128 1635.06 508.539 1631.61 507.961C1618.83 505.766 1606.62 503.884 1593.71 502.059C1589.49 494.359 1583.2 483.467 1576.68 473.106C1596.62 475.022 1615.92 477.084 1635.9 479.767C1645.04 480.959 1654.19 482.366 1663.36 483.878C1663.62 481.356 1663.8 478.861 1664.12 476.339C1664.9 469.83 1665.88 463.315 1667 456.828C1663.96 440.94 1656.26 423.073 1645.62 404.538C1588.49 399.834 1551.36 329.385 1512.11 254.79C1505.65 242.519 1498.97 229.837 1492.17 217.412C1491.96 217.001 1492 216.492 1492.28 216.123C1492.55 215.74 1493.05 215.573 1493.5 215.677C1543.66 227.328 1588.35 253.564 1619.33 289.527C1648.35 323.239 1661.82 361.223 1657.7 397.221C1660.8 402.608 1665.99 412.712 1665.99 412.712C1669.73 420.523 1674.66 421.471 1677.17 413.325C1681.24 399.981 1689.7 376.275 1699.71 357.662C1705.58 321.685 1695.81 287.729 1692.11 276.663C1687.78 277.702 1683.47 278.148 1679.26 277.925C1661.72 276.963 1647.6 265.667 1640.49 246.867C1635.43 233.572 1635.52 219.893 1640.71 208.381C1645.43 197.901 1653.93 190.111 1665.23 185.853C1671.36 183.526 1677.56 182.501 1683.68 182.843C1701.51 183.804 1717.05 196.201 1724.25 215.189C1732.93 238.073 1725.89 259.542 1707.43 270.462C1705.84 271.409 1705.94 273.047 1706.22 273.946C1708.67 281.632 1713.77 297.408 1715.61 324.668C1715.78 327.141 1717.27 328.424 1719.04 325.776C1725.05 316.745 1753.98 279.332 1793.2 252.832C1812.62 216.792 1843.58 184.181 1881.05 160.363C1933.26 127.201 1994.5 113.815 2056.47 122.142C2056.93 122.198 2057.32 122.525 2057.46 122.971C2057.6 123.403 2057.46 123.891 2057.1 124.205C1980.3 192.473 1893.25 269.883 1816.79 265.758C1811.03 265.444 1805.36 264.615 1799.85 263.368C1766.49 288.656 1738.65 320.508 1719.72 357.175C1715.28 365.697 1711.4 374.477 1707.89 383.368C1719.53 381.375 1731.34 379.048 1743.17 376.463C1749.19 375.069 1756.27 372.428 1763.78 365.662C1823.32 310.257 1868.37 306.076 2001.05 294.265L2002.95 294.112C2004.84 293.938 2006.35 294.398 2007.09 295.269C2007.82 296.161 2007.76 297.485 2006.5 298.997C1971.28 341.566 1880.43 399.165 1787.53 394.141C1775.47 393.486 1763.67 391.723 1752.31 389.006C1739.75 391.835 1727.22 394.392 1714.85 396.573C1708.6 397.653 1702.18 398.845 1699.75 407.005C1692.78 430.258 1688.5 454.368 1686.53 478.645C1684.79 499.773 1684.67 521.075 1685.77 542.342C1686.72 563.735 1689.28 584.096 1694.78 604.081C1705.43 643.967 1726.69 680.335 1755.3 709.775C1775.79 730.994 1799.81 748.693 1825.77 763.194C1830.46 765.417 1834.85 763.71 1832.71 756.944C1831.01 751.634 1824.43 729.524 1821.42 710.87C1793.49 669.624 1775.91 612.29 1781.05 551.791C1767.8 545.499 1754.15 539.875 1740.22 534.949C1725.3 529.583 1710.07 525.068 1694.65 521.11C1694.54 511.375 1694.63 500.484 1695.21 489.697C1713.82 493.627 1732.38 498.359 1750.59 504.219C1762.68 508.037 1774.67 512.4 1786.5 517.263C1793.03 488.937 1804.96 460.479 1823.44 433.115C1825.05 431.178 1827.02 430.488 1828.02 434.125L1828.02 434.139C1855.99 537.025 1886.62 652.204 1836.48 713.071C1841.63 740.241 1848.21 760.254 1855.05 775.019C1856.2 777.319 1857.55 778.894 1860.35 780.225C1897.55 796.105 1937.24 806.369 1977.51 811.679C2016.52 816.773 2057.94 817.296 2096.96 813.393C2112.62 811.847 2115.34 814.028 2119.24 824.313C2121.74 830.884 2126.77 842.514 2128.39 847.991C2130.12 853.872 2128.09 858.395 2123.32 858.987M1824.72 569.535C1822.98 546.274 1821.18 522.24 1820.83 489.163C1820.83 488.564 1820.35 488.035 1819.75 488.007L1819.74 488.007C1819.12 487.972 1818.62 488.418 1818.53 489.024C1804.24 593.458 1817.07 656.282 1822.45 676.324C1823.42 679.752 1826.92 680.358 1827.17 675.377C1829.24 629.969 1827.06 600.55 1824.72 569.535M1799.35 373.825C1826.35 370.671 1886.55 359.719 1951.44 322.131C1951.93 321.823 1952.14 321.206 1951.9 320.688C1951.69 320.162 1951.1 319.882 1950.52 320.057C1932.71 325.67 1914.87 331.801 1895.96 338.276C1864.05 349.229 1831.21 360.497 1798.38 369.2L1798.41 369.2C1791 371.12 1791.09 374.869 1799.35 373.825M1828.48 238.281C1854.67 224.735 1876.25 213.069 1898.92 200.789C1926.97 185.613 1955.98 169.94 1996.35 149.26C1996.89 148.974 1997.14 148.365 1996.92 147.799C1996.73 147.246 1996.14 146.924 1995.58 147.022C1994.7 147.204 1911.02 165.345 1826.16 234.169C1822.02 237.582 1824.42 240.379 1828.48 238.281M1700.64 207.539C1695.19 202.343 1688.57 199.416 1681.47 199.047C1670.05 198.438 1659.55 204.496 1654.13 214.848C1653.88 215.327 1654.01 216.025 1654.39 216.271C1658.45 218.91 1658.78 219.272 1661.94 222.705C1662.11 222.91 1662.4 222.985 1662.66 222.999C1662.73 222.999 1662.8 223.013 1662.86 222.999C1663.19 222.958 1663.49 222.78 1663.68 222.52C1669.26 215.019 1681.22 207.758 1693.24 208.408C1695.38 208.51 1697.48 208.879 1699.47 209.501C1699.95 209.631 1700.56 209.426 1700.85 208.975C1701.11 208.496 1701.03 207.902 1700.64 207.539M1641 380.891C1641 380.641 1640.94 380.377 1640.81 380.182C1639.22 374.834 1618.69 310.257 1531.84 251.215C1531.33 250.86 1530.64 250.965 1530.25 251.452C1529.87 251.938 1529.93 252.641 1530.4 253.065C1557.73 277.975 1579.45 305.931 1604.59 338.275C1615.29 352.017 1626.34 366.245 1638.84 381.573C1639.05 381.837 1639.37 381.99 1639.69 382.004L1639.74 382.004C1640.4 382.032 1640.97 381.545 1641 380.891M1365.99 355.719C1361.48 316.938 1353.97 281.583 1346.01 244.132C1340.4 217.742 1334.61 190.411 1329.72 160.97C1329.61 160.378 1329.03 159.96 1328.5 160.009C1327.91 160.037 1327.45 160.51 1327.42 161.116C1322.44 278.581 1363.41 355.621 1363.81 356.388C1364.02 356.771 1364.39 356.994 1364.79 357.001C1364.92 357.014 1365.06 356.994 1365.18 356.966C1365.73 356.792 1366.07 356.255 1365.99 355.719M1211.33 295.029C1197.39 282.115 1137.49 230.249 1049.48 206.045C1048.9 205.892 1048.31 206.191 1048.09 206.756C1047.87 207.306 1048.06 207.94 1048.59 208.226C1062.92 216.457 1077.68 225.406 1093.28 234.863C1131.87 258.252 1171.75 282.352 1210.48 298.737C1213.73 299.866 1213.64 297.203 1211.33 295.029M1234 421.116C1233.99 420.476 1233.53 419.969 1232.93 419.91C1213.68 417.843 1196.06 416.356 1179.11 415.385C1134.96 412.877 1103.07 414.252 1066.17 415.849C1058.08 416.195 1049.78 416.555 1041.14 416.871C1040.53 416.901 1040.03 417.416 1040 418.048C1039.97 418.703 1040.4 419.27 1041.01 419.358C1063.67 423.014 1087.02 425.552 1110.39 426.884C1182.3 430.996 1232.5 422.477 1233.02 422.396C1233.6 422.293 1234.01 421.756 1234 421.116M1592.44 603.79C1580.39 578.909 1568.13 557.515 1556.22 536.82C1537.52 504.341 1518.22 470.736 1499.29 422.755C1499.04 422.189 1498.41 421.875 1497.85 422.056C1497.26 422.231 1496.91 422.825 1497.02 423.426C1497.26 424.629 1520.6 540.489 1587.57 606.188C1591.06 609.508 1594.34 608.026 1592.44 603.79M1658.27 734.831C1657.95 734.488 1657.37 734.04 1656.86 733.725C1652.92 731.086 1647.98 729.371 1642.7 729.056C1629.87 728.314 1617.11 735.721 1610.16 747.811C1609.87 748.322 1609.99 749.05 1610.43 749.323C1614.15 751.647 1615.16 752.732 1618.13 755.742C1618.28 755.889 1618.57 755.98 1618.82 755.994C1618.9 756.008 1618.95 756.008 1619 755.994C1619.33 755.952 1619.62 755.791 1619.83 755.553C1626.71 746.782 1640.54 738.017 1654.19 738.157C1654.19 738.157 1654.95 738.171 1655.01 738.185C1658.73 738.451 1659.92 736.617 1658.27 734.831" id="Fill-4" fill="#FFFFFF" fill-opacity="0.18" fill-rule="evenodd" stroke="none" clip-path="url(#clip_1)" />
    <path d="M709 564.005C712.927 587.15 713.667 602.683 714.075 617.557C727.773 631.423 739.154 646.5 749.913 662.796C760.52 678.749 769.26 695.816 777.288 713.351C780.261 719.864 783.573 722.224 790.363 720.417C797.16 718.596 818.084 713.008 818.084 713.008C820.822 711.916 821.721 710.249 820.4 706.866C808.929 678.546 800.459 664.883 782.529 639.743C761.931 610.68 737.308 585.063 709 564.005M961.315 858.987C955.819 859.656 950.336 860.144 944.868 860.534C899.425 863.781 853.836 861.67 809.07 854.032C764.325 846.36 720.417 833.121 679.319 813.212C643.432 795.778 609.617 773.033 581.096 744.498C552.317 739.85 532.368 743.411 523.307 745.85C526.502 757.438 525.505 768.608 520.294 778.239C514.784 788.51 505.026 796.175 492.115 800.419C485.286 802.634 478.451 803.582 471.782 803.227C452.768 802.202 437.89 790.893 431.997 772.943C428.202 761.382 428.934 749.836 434.131 739.558C439.837 728.234 450.467 719.58 464.089 715.12C470.89 712.876 477.607 711.943 484.038 712.27C502.019 713.19 511.812 724.632 514.533 728.158C514.707 728.381 514.868 728.604 515.021 728.841C516.563 731.07 518.244 732.401 522.345 731.398C535.193 728.304 551.243 727.593 558.88 727.97C564.091 728.234 565.151 727.503 561.287 722.667C553.593 713.678 540.117 693.351 539.113 691.602C536.776 687.902 529.453 681.317 522.45 678.23L522.505 678.23C498.713 667.471 472.201 653.005 454.554 640.804C417.6 635.926 385.731 618.059 360.118 584.333C340.156 558.056 326.122 524.385 318.679 486.742C293.046 482.68 267.412 477.614 242.218 469.858C233.876 467.287 224.341 463.831 216.794 460.883C205.843 456.633 185.783 448.354 176.708 445.685C154.067 439.749 131.761 434.926 110.075 431.143C50.6195 454.793 1.41025 464.765 -43.6488 462.319C-87.006 459.977 -127.05 446.208 -165.769 420.3C-173.518 414.928 -169.382 410.092 -163.272 407.729C-101.779 384.971 -48.8941 375.104 -1.97267 377.64C42.8074 380.044 83.0258 393.514 120.74 418.663C132.061 420.746 143.528 423.129 155.113 425.77C149.715 421.561 144.4 417.213 139.391 412.565C114.651 389.675 95.4275 362.045 80.1172 332.814C75.6043 324.445 70.9659 321.859 65.044 321.309L65.058 321.309C-44.4789 310.543 -82.7442 275.597 -167.582 185.47C-167.896 185.142 -167.994 184.627 -167.805 184.222C-167.624 183.79 -167.227 183.498 -166.766 183.47C-156.576 183.01 -146.197 183.08 -135.901 183.63C-30.8147 189.309 61.4309 245.237 85.8228 317.309C102.591 348.687 123.544 377.829 150.07 400.622C168.519 416.635 189.626 428.996 212.1 438.313C217.478 440.271 221.816 438.264 219.096 432.39C214.297 421.603 209.77 409.673 205.578 396.81C136.036 292.851 109.036 213.601 162.221 98.708C162.402 98.269 162.835 98.0112 163.295 98.0112C163.735 97.9554 164.167 98.2829 164.362 98.7219C212.4 204.033 255.471 319.874 218.503 390.573C226.078 414.064 234.56 434.501 244.032 449.365C245.294 449.734 246.571 450.138 247.847 450.48C269.7 456.34 292.188 460.193 314.955 463.134C311.327 432.85 311.655 400.636 316.377 367.975C316.454 367.516 316.782 367.132 317.228 367C317.689 366.881 318.149 367.028 318.456 367.369C403.057 465.893 448.521 548.676 460.392 626.24C474.384 636.581 490.42 646.49 508.813 655.869C514.665 658.851 520.622 656.015 517.295 647.695C516.339 645.27 508.799 624.561 505.96 610.743C503.449 598.374 501.545 587.643 500.401 576.898C499.146 565.323 498.546 542.21 498.685 536.719C498.902 528.273 498.922 520.378 499.243 513.396C492.84 512.128 473.059 508.539 469.613 507.961C456.828 505.766 444.621 503.884 431.711 502.059C427.491 494.359 421.199 483.467 414.677 473.106C434.619 475.022 453.919 477.084 473.896 479.767C483.04 480.959 492.192 482.366 501.357 483.878C501.622 481.356 501.803 478.861 502.124 476.339C502.898 469.83 503.882 463.315 505.005 456.828C501.964 440.94 494.256 423.073 483.619 404.538C426.486 399.834 389.365 329.385 350.109 254.79C343.65 242.519 336.968 229.837 330.174 217.412C329.958 217.001 330 216.492 330.279 216.123C330.551 215.74 331.053 215.573 331.499 215.677C381.657 227.328 426.347 253.564 457.33 289.527C486.353 323.239 499.822 361.223 495.7 397.221C498.804 402.608 503.986 412.712 503.986 412.712C507.725 420.523 512.656 421.471 515.167 413.325C519.241 399.981 527.702 376.275 537.711 357.662C543.584 321.685 533.812 287.729 530.108 276.663C525.784 277.702 521.466 278.148 517.26 277.925C499.725 276.963 485.6 265.667 478.485 246.867C473.429 233.572 473.519 219.893 478.709 208.381C483.431 197.901 491.927 190.111 503.226 185.853C509.357 183.526 515.558 182.501 521.675 182.843C539.51 183.804 555.051 196.201 562.249 215.189C570.926 238.073 563.888 259.542 545.425 270.462C543.835 271.409 543.94 273.047 544.219 273.946C546.674 281.632 551.766 297.408 553.607 324.668C553.782 327.141 555.267 328.424 557.039 325.776C563.051 316.745 591.984 279.332 631.198 252.832C650.624 216.792 681.579 184.181 719.049 160.363C771.258 127.201 832.499 113.815 894.473 122.142C894.933 122.198 895.324 122.525 895.456 122.971C895.603 123.403 895.456 123.891 895.101 124.205C818.298 192.473 731.249 269.883 654.795 265.758C649.033 265.444 643.363 264.615 637.852 263.368C604.49 288.656 576.646 320.508 557.722 357.175C553.279 365.697 549.401 374.477 545.886 383.368C557.527 381.375 569.336 379.048 581.173 376.463C587.185 375.069 594.272 372.428 601.777 365.662C661.317 310.257 706.369 306.076 839.049 294.265L840.946 294.112C842.836 293.938 844.35 294.398 845.089 295.269C845.822 296.161 845.759 297.485 844.496 298.997C809.279 341.566 718.429 399.165 625.527 394.141C613.474 393.486 601.673 391.723 590.31 389.006C577.755 391.835 565.221 394.392 552.847 396.573C546.597 397.653 540.18 398.845 537.746 407.005C530.778 430.258 526.502 454.368 524.528 478.645C522.791 499.773 522.673 521.075 523.768 542.342C524.716 563.735 527.276 584.096 532.78 604.081C543.431 643.967 564.691 680.335 593.295 709.775C613.788 730.994 637.81 748.693 663.772 763.194C668.459 765.417 672.846 763.71 670.705 756.944C669.01 751.634 662.433 729.524 659.419 710.87C631.491 669.624 613.907 612.29 619.047 551.791C605.802 545.499 592.152 539.875 578.215 534.949C563.303 529.583 548.069 525.068 532.654 521.11C532.542 511.375 532.633 500.484 533.212 489.697C551.822 493.627 570.375 498.359 588.587 504.219C600.675 508.037 612.672 512.4 624.495 517.263C631.031 488.937 642.958 460.479 661.435 433.115C663.053 431.178 665.02 430.488 666.025 434.125L666.025 434.139C693.995 537.025 724.622 652.204 674.479 713.071C679.633 740.241 686.211 760.254 693.046 775.019C694.204 777.319 695.55 778.894 698.347 780.225C735.552 796.105 775.241 806.369 815.508 811.679C854.52 816.773 895.945 817.296 934.963 813.393C950.622 811.847 953.336 814.028 957.242 824.313C959.739 830.884 964.775 842.514 966.393 847.991C968.116 853.872 966.093 858.395 961.315 858.987M662.723 569.535C660.981 546.274 659.177 522.24 658.826 489.163C658.826 488.564 658.35 488.035 657.751 488.007L657.738 488.007C657.125 487.972 656.622 488.418 656.533 489.024C642.238 593.458 655.073 656.282 660.451 676.324C661.421 679.752 664.919 680.358 665.174 675.377C667.24 629.969 665.057 600.55 662.723 569.535M637.348 373.825C664.353 370.671 724.546 359.719 789.44 322.131C789.93 321.823 790.14 321.206 789.902 320.688C789.692 320.162 789.097 319.882 788.517 320.057C770.709 325.67 752.874 331.801 733.961 338.276C702.046 349.229 669.207 360.497 636.375 369.2L636.41 369.2C629.003 371.12 629.094 374.869 637.348 373.825M666.477 238.281C692.668 224.735 714.251 213.069 736.917 200.789C764.968 185.613 793.978 169.94 834.352 149.26C834.89 148.974 835.142 148.365 834.918 147.799C834.73 147.246 834.142 146.924 833.576 147.022C832.701 147.204 749.023 165.345 664.155 234.169C660.015 237.582 662.421 240.379 666.477 238.281M538.637 207.539C533.191 202.343 526.565 199.416 519.466 199.047C508.05 198.438 497.547 204.496 492.128 214.848C491.877 215.327 492.01 216.025 492.393 216.271C496.452 218.91 496.78 219.272 499.939 222.705C500.107 222.91 500.399 222.985 500.664 222.999C500.727 222.999 500.797 223.013 500.86 222.999C501.187 222.958 501.487 222.78 501.676 222.52C507.262 215.019 519.215 207.758 531.245 208.408C533.379 208.51 535.478 208.879 537.466 209.501C537.954 209.631 538.561 209.426 538.847 208.975C539.112 208.496 539.028 207.902 538.637 207.539M479 380.891C479 380.641 478.938 380.377 478.805 380.182C477.222 374.834 456.688 310.257 369.839 251.215C369.331 250.86 368.637 250.965 368.255 251.452C367.866 251.938 367.928 252.641 368.401 253.065C395.734 277.975 417.449 305.931 442.594 338.275C453.292 352.017 464.336 366.245 476.84 381.573C477.048 381.837 477.368 381.99 477.694 382.004L477.743 382.004C478.403 382.032 478.965 381.545 479 380.891M203.987 355.719C199.484 316.938 191.966 281.583 184.015 244.132C178.399 217.742 172.609 190.411 167.72 160.97C167.609 160.378 167.028 159.96 166.504 160.009C165.909 160.037 165.448 160.51 165.42 161.116C160.44 278.581 201.407 355.621 201.813 356.388C202.015 356.771 202.393 356.994 202.792 357.001C202.924 357.014 203.064 356.994 203.183 356.966C203.729 356.792 204.071 356.255 203.987 355.719M49.3326 295.029C35.3914 282.115 -24.5082 230.249 -112.519 206.045C-113.096 205.892 -113.687 206.191 -113.909 206.756C-114.132 207.306 -113.937 207.94 -113.409 208.226C-99.0787 216.457 -84.3244 225.406 -68.7154 234.863C-30.1305 258.252 9.74698 282.352 48.4778 298.737C51.7303 299.866 51.6399 297.203 49.3326 295.029M71.9997 421.116C71.9857 420.476 71.5257 419.969 70.9332 419.91C51.6819 417.843 34.0616 416.356 17.1104 415.385C-27.0449 412.877 -58.926 414.252 -95.8324 415.849C-103.925 416.195 -112.219 416.555 -120.862 416.871C-121.468 416.901 -121.97 417.416 -121.998 418.048C-122.033 418.703 -121.601 419.27 -120.994 419.358C-98.3277 423.014 -74.985 425.552 -51.6074 426.884C20.3027 430.996 70.5011 422.477 71.0169 422.396C71.5954 422.293 72.0136 421.756 71.9997 421.116M430.44 603.79C418.389 578.909 406.129 557.515 394.218 536.82C375.525 504.341 356.224 470.736 337.293 422.755C337.042 422.189 336.414 421.875 335.849 422.056C335.256 422.231 334.914 422.825 335.019 423.426C335.256 424.629 358.604 540.489 425.569 606.188C429.058 609.508 432.345 608.026 430.44 603.79M496.273 734.831C495.947 734.488 495.371 734.04 494.865 733.725C490.923 731.086 485.976 729.371 480.696 729.056C467.873 728.314 455.105 735.721 448.16 747.811C447.868 748.322 447.986 749.05 448.43 749.323C452.149 751.647 453.156 752.732 456.125 755.742C456.285 755.889 456.569 755.98 456.819 755.994C456.896 756.008 456.951 756.008 457 755.994C457.326 755.952 457.617 755.791 457.825 755.553C464.709 746.782 478.538 738.017 492.193 738.157C492.193 738.157 492.95 738.171 493.005 738.185C496.731 738.451 497.925 736.617 496.273 734.831" id="Fill-4-Copy" fill="#FFFFFF" fill-opacity="0.18" fill-rule="evenodd" stroke="none" clip-path="url(#clip_1)" />
  </g>
</svg>