<?xml version="1.0" encoding="UTF-8" standalone="no"?>
<!-- Created with Inkscape (http://www.inkscape.org/) -->

<svg
   xmlns:dc="http://purl.org/dc/elements/1.1/"
   xmlns:cc="http://creativecommons.org/ns#"
   xmlns:rdf="http://www.w3.org/1999/02/22-rdf-syntax-ns#"
   xmlns:svg="http://www.w3.org/2000/svg"
   xmlns="http://www.w3.org/2000/svg"
   xmlns:sodipodi="http://sodipodi.sourceforge.net/DTD/sodipodi-0.dtd"
   xmlns:inkscape="http://www.inkscape.org/namespaces/inkscape"
   width="1000"
   height="715.27332"
   viewBox="0 0 100 71.527335"
   version="1.1"
   id="svg8"
   inkscape:version="0.92.3 (2405546, 2018-03-11)"
   sodipodi:docname="A.svg">
  <defs
     id="defs2" />
  <sodipodi:namedview
     id="base"
     pagecolor="#ffffff"
     bordercolor="#666666"
     borderopacity="1.0"
     inkscape:pageopacity="0.0"
     inkscape:pageshadow="2"
     inkscape:zoom="0.30656934"
     inkscape:cx="653.56721"
     inkscape:cy="-171.57804"
     inkscape:document-units="px"
     inkscape:current-layer="layer1"
     showgrid="false"
     units="px"
     fit-margin-top="0"
     fit-margin-left="0"
     fit-margin-right="0"
     fit-margin-bottom="0" />
  <metadata
     id="metadata5">
    <rdf:RDF>
      <cc:Work
         rdf:about="">
        <dc:format>image/svg+xml</dc:format>
        <dc:type
           rdf:resource="http://purl.org/dc/dcmitype/StillImage" />
        <dc:title></dc:title>
      </cc:Work>
    </rdf:RDF>
  </metadata>
  <g
     inkscape:label="Layer 1"
     inkscape:groupmode="layer"
     id="layer1"
     transform="translate(8.7210069,56.571264)">
    <g
       id="g868"
       transform="matrix(0.38755274,0,0,-0.38755274,22.963017,11.156887)"
       style="fill:#acbf2f;fill-opacity:1">
      <path
         d="m 0,0 h 2.12 v -1.658 -7.98 H 0 Z M 9.532,-1.955 H 6.601 V 0 h 7.986 V -1.955 H 11.655 V -9.638 H 9.532 Z m 11.503,2.024 h 1.955 l 4.131,-9.707 h -2.217 l -0.881,2.162 h -4.076 l -0.881,-2.162 h -2.161 z m 2.231,-5.673 -1.281,3.126 -1.28,-3.126 z M 31.372,0 h 2.118 v -7.711 h 4.806 V -9.638 H 31.372 Z M 42.75,0 h 2.119 V -1.973 -9.638 H 42.75 Z m 10.592,0.069 h 1.956 l 4.131,-9.707 h -2.217 l -0.881,2.162 h -4.077 l -0.881,-2.162 h -2.161 z m 2.231,-5.673 -1.281,3.126 -1.281,-3.126 z M 63.677,0 h 1.957 l 4.515,-5.935 V 0 h 2.094 v -9.638 h -1.805 l -4.668,6.127 v -6.127 h -2.093 z m 20.404,0 h 2.12 V -4.213 L 90.112,0 h 2.561 l -3.925,-4.089 4.104,-5.549 h -2.547 l -2.989,4.103 -1.115,-1.158 v -2.945 h -2.12 z M 96.99,0 h 2.119 v -2.208 -7.43 H 96.99 Z m 9.531,-1.955 h -2.932 V 0 h 7.987 v -1.955 h -2.933 v -7.683 h -2.122 z m 8.601,-2.892 v 0.027 c 0,2.741 2.065,4.986 5.026,4.986 1.817,0 2.905,-0.606 3.799,-1.488 l -1.348,-1.556 c -0.745,0.675 -1.502,1.088 -2.466,1.088 -1.625,0 -2.795,-1.348 -2.795,-3.001 V -4.82 c 0,-1.651 1.144,-3.029 2.795,-3.029 1.102,0 1.776,0.442 2.534,1.131 l 1.35,-1.364 c -0.992,-1.061 -2.093,-1.721 -3.952,-1.721 -2.838,0 -4.943,2.189 -4.943,4.956 M 128.471,0 h 2.12 v -3.815 h 3.91 V 0 h 2.121 v -9.638 h -2.121 v 3.869 h -3.91 v -3.869 h -2.12 z m 13.226,0 h 7.269 v -1.886 h -5.163 v -1.956 h 4.543 v -1.886 h -4.543 v -2.024 h 5.232 v -1.886 h -7.338 z m 11.986,0 h 1.955 l 4.516,-5.935 V 0 h 2.093 v -9.638 h -1.805 l -4.667,6.127 v -6.127 h -2.092 z"
         style="fill:#acbf2f;fill-opacity:1;fill-rule:nonzero;stroke:none"
         id="path870"
         inkscape:connector-curvature="0" />
    </g>
    <g
       id="g872"
       transform="matrix(0.38755274,0,0,-0.38755274,45.123088,-44.339735)"
       style="fill:#acbf2f;fill-opacity:1">
      <path
         d="m 0,0 c 0.019,-0.036 -0.019,0.031 0,0 m 84.467,-31.033 c 0.531,-3.095 0.633,-5.173 0.686,-7.163 1.857,-1.853 3.398,-3.869 4.856,-6.049 1.436,-2.134 2.62,-4.417 3.707,-6.764 0.403,-0.869 0.85,-1.185 1.77,-0.943 0.924,0.243 3.759,0.989 3.759,0.989 0.369,0.147 0.491,0.371 0.312,0.823 -1.554,3.788 -2.702,5.616 -5.13,8.978 -2.792,3.888 -6.127,7.313 -9.96,10.129 m 34.547,-38.214 c -0.217,0.735 -0.894,2.298 -1.227,3.181 -0.526,1.384 -0.89,1.676 -2.993,1.466 -5.24,-0.522 -10.803,-0.453 -16.041,0.233 -5.408,0.713 -10.738,2.091 -15.732,4.227 -0.378,0.179 -0.556,0.391 -0.711,0.7 -0.92,1.985 -1.803,4.674 -2.496,8.326 6.735,8.183 2.623,23.664 -1.135,37.494 v 10e-4 c -0.134,0.49 -0.4,0.397 -0.615,0.136 -2.482,-3.677 -4.083,-7.504 -4.962,-11.31 -1.587,0.653 -3.197,1.238 -4.82,1.753 -2.448,0.788 -4.938,1.424 -7.438,1.952 -0.077,-1.45 -0.089,-2.914 -0.074,-4.223 2.07,-0.53 4.115,-1.138 6.119,-1.858 1.872,-0.663 3.704,-1.42 5.483,-2.264 -0.69,-8.135 1.669,-15.841 5.421,-21.384 0.405,-2.507 1.287,-5.479 1.514,-6.194 0.289,-0.909 -0.3,-1.138 -0.93,-0.839 -3.486,1.949 -6.712,4.328 -9.464,7.18 -3.841,3.958 -6.697,8.846 -8.126,14.207 -0.738,2.685 -1.083,5.423 -1.21,8.299 -0.148,2.859 -0.132,5.722 0.102,8.561 0.264,3.263 0.84,6.503 1.775,9.63 0.326,1.097 1.189,1.258 2.028,1.402 1.662,0.293 3.345,0.637 5.031,1.018 1.524,-0.366 3.109,-0.604 4.727,-0.692 12.476,-0.674 24.676,7.067 29.406,12.789 0.169,0.204 0.179,0.383 0.08,0.502 -0.101,0.118 -0.304,0.179 -0.557,0.156 L 101.916,5.181 C 84.096,3.594 78.048,3.031 70.053,-4.416 c -1.009,-0.91 -1.96,-1.263 -2.767,-1.451 -1.59,-0.348 -3.176,-0.661 -4.739,-0.93 0.471,1.197 0.993,2.376 1.589,3.522 2.542,4.931 6.28,9.21 10.761,12.61 0.74,-0.168 1.501,-0.279 2.274,-0.322 10.267,-0.556 21.958,9.85 32.271,19.027 0.047,0.041 0.065,0.107 0.047,0.166 -0.019,0.059 -0.07,0.103 -0.132,0.11 C 101.036,29.436 92.81,27.637 85.8,23.179 80.768,19.979 76.612,15.594 74.003,10.752 68.738,7.189 64.852,2.158 64.045,0.946 63.808,0.588 63.607,0.761 63.584,1.094 63.335,4.757 62.655,6.88 62.323,7.912 c -0.038,0.119 -0.052,0.341 0.163,0.468 2.478,1.468 3.422,4.354 2.259,7.43 -0.967,2.552 -3.053,4.219 -5.45,4.347 -0.821,0.046 -1.654,-0.091 -2.476,-0.402 -1.518,-0.574 -2.658,-1.621 -3.292,-3.03 -0.698,-1.548 -0.71,-3.386 -0.032,-5.173 0.956,-2.526 2.853,-4.045 5.208,-4.174 0.565,-0.031 1.145,0.03 1.725,0.169 0.499,-1.487 1.809,-6.051 1.021,-10.887 -1.344,-2.501 -2.48,-5.688 -3.029,-7.482 -0.335,-1.096 -0.998,-0.968 -1.499,0.081 0,0 -0.697,1.36 -1.115,2.083 0.555,4.841 -1.252,9.945 -5.151,14.476 -4.16,4.834 -10.162,8.362 -16.898,9.926 -0.058,0.014 -0.125,-0.009 -0.164,-0.06 -0.037,-0.049 -0.042,-0.118 -0.012,-0.173 0.912,-1.67 1.808,-3.374 2.676,-5.024 5.27,-10.026 10.256,-19.496 17.927,-20.127 1.429,-2.494 2.466,-4.895 2.874,-7.029 -0.151,-0.874 -0.283,-1.749 -0.388,-2.624 -0.041,-0.338 -0.067,-0.673 -0.103,-1.012 -1.231,0.203 -2.459,0.392 -3.686,0.551 -2.684,0.361 -5.277,0.638 -7.951,0.895 0.875,-1.393 1.718,-2.856 2.285,-3.892 1.735,-0.244 3.372,-0.498 5.091,-0.793 0.462,-0.077 3.118,-0.558 3.977,-0.729 -0.042,-0.939 -0.045,-2 -0.074,-3.135 -0.018,-0.738 0.062,-3.845 0.228,-5.401 0.155,-1.444 0.411,-2.889 0.75,-4.548 0.38,-1.859 1.391,-4.642 1.521,-4.968 0.447,-1.12 -0.354,-1.501 -1.138,-1.1 -2.471,1.261 -4.624,2.592 -6.504,3.982 -1.594,10.427 -7.7,21.555 -19.06,34.797 -0.039,0.047 -0.102,0.066 -0.166,0.05 -0.058,-0.018 -0.103,-0.07 -0.112,-0.131 -0.636,-4.389 -0.68,-8.72 -0.191,-12.79 -3.057,0.396 -6.077,0.912 -9.013,1.7 -0.171,0.045 -0.342,0.1 -0.511,0.149 -1.273,1.999 -2.411,4.746 -3.429,7.905 4.964,9.502 -0.819,25.073 -7.27,39.23 -0.026,0.057 -0.086,0.101 -0.144,0.093 -0.062,0 -0.119,-0.035 -0.145,-0.092 C 3.884,16.024 7.511,5.372 16.849,-8.603 c 0.564,-1.729 1.17,-3.333 1.816,-4.782 0.365,-0.789 -0.219,-1.059 -0.94,-0.796 -3.02,1.252 -5.853,2.914 -8.329,5.067 -3.564,3.063 -6.376,6.979 -8.627,11.196 -3.276,9.689 -15.665,17.207 -29.777,17.969 -1.381,0.076 -2.776,0.083 -4.144,0.022 -0.062,-0.004 -0.116,-0.042 -0.141,-0.099 -0.023,-0.056 -0.011,-0.125 0.031,-0.167 C -21.868,7.69 -16.73,2.993 -2.021,1.547 H -2.023 C -1.229,1.473 -0.605,1.125 0,0 c 2.055,-3.93 4.639,-7.644 7.961,-10.72 0.673,-0.624 1.385,-1.21 2.113,-1.776 -1.558,0.355 -3.099,0.676 -4.619,0.957 -5.064,3.38 -10.463,5.189 -16.477,5.513 -6.301,0.342 -13.401,-0.986 -21.661,-4.045 -0.821,-0.318 -1.375,-0.967 -0.335,-1.689 5.198,-3.483 10.576,-5.333 16.398,-5.648 6.052,-0.328 12.66,1.012 20.644,4.191 2.912,-0.51 5.908,-1.156 8.949,-1.955 1.217,-0.359 3.912,-1.47 5.383,-2.044 1.012,-0.395 2.292,-0.86 3.412,-1.206 3.385,-1.042 6.827,-1.724 10.268,-2.269 1.001,-5.059 2.883,-9.586 5.566,-13.119 3.44,-4.531 7.72,-6.934 12.681,-7.588 2.369,-1.642 5.931,-3.586 9.122,-5.031 h -0.007 c 0.94,-0.416 1.927,-1.301 2.24,-1.799 0.133,-0.235 1.944,-2.966 2.977,-4.174 0.52,-0.65 0.376,-0.75 -0.322,-0.715 -1.027,0.052 -3.182,-0.043 -4.908,-0.462 -0.551,-0.133 -0.776,0.046 -0.983,0.346 -0.021,0.032 -0.043,0.062 -0.066,0.092 -0.364,0.474 -1.679,2.012 -4.096,2.135 -0.862,0.043 -1.764,-0.081 -2.677,-0.382 -1.829,-0.599 -3.257,-1.765 -4.025,-3.285 -0.697,-1.382 -0.795,-2.934 -0.284,-4.488 0.791,-2.412 2.789,-3.933 5.342,-4.07 0.896,-0.049 1.813,0.078 2.729,0.378 1.735,0.57 3.044,1.6 3.786,2.979 0.699,1.296 0.832,2.797 0.403,4.355 1.217,0.329 3.897,0.807 7.762,0.182 3.829,-3.837 8.37,-6.895 13.19,-9.237 5.517,-2.676 11.416,-4.457 17.422,-5.487 6.012,-1.026 12.134,-1.311 18.235,-0.874 0.735,0.053 1.472,0.119 2.209,0.208 0.642,0.079 0.914,0.688 0.682,1.48 m -40.421,23.248 c -0.035,-0.67 -0.511,-0.587 -0.641,-0.128 -0.732,2.695 -2.479,11.143 -0.535,25.183 0.012,0.082 0.082,0.142 0.165,0.137 h 0.001 c 0.081,-0.004 0.146,-0.075 0.146,-0.157 0.049,-4.445 0.294,-7.678 0.529,-10.804 0.318,-4.171 0.616,-8.127 0.335,-14.231 M 74.817,-4.87 h -0.005 c 4.397,1.166 8.795,2.671 13.067,4.134 2.533,0.867 4.924,1.685 7.306,2.437 C 95.263,1.725 95.342,1.687 95.37,1.617 95.403,1.546 95.376,1.463 95.308,1.424 86.62,-3.601 78.559,-5.065 74.943,-5.488 73.837,-5.627 73.824,-5.126 74.817,-4.87 m 3.651,18.084 c 11.366,9.217 22.572,11.646 22.689,11.671 0.076,0.013 0.156,-0.029 0.18,-0.103 0.03,-0.076 -0.003,-0.158 -0.076,-0.197 -5.407,-2.768 -9.292,-4.868 -13.051,-6.901 -3.035,-1.643 -5.924,-3.206 -9.432,-5.021 -0.545,-0.28 -0.864,0.093 -0.31,0.551 m -16.824,3.362 c -0.041,-0.062 -0.121,-0.091 -0.187,-0.072 -0.266,0.083 -0.548,0.135 -0.833,0.15 -1.619,0.087 -3.223,-0.908 -3.973,-1.935 -0.026,-0.035 -0.066,-0.059 -0.111,-0.064 -0.008,-0.002 -0.017,0 -0.026,0 -0.035,0 -0.072,0.012 -0.097,0.039 -0.424,0.47 -0.466,0.52 -1.013,0.88 -0.052,0.034 -0.07,0.129 -0.036,0.195 0.73,1.42 2.139,2.25 3.673,2.167 0.951,-0.051 1.842,-0.454 2.575,-1.164 0.052,-0.051 0.064,-0.131 0.028,-0.196 M 53.437,-6.615 h -0.006 c -0.045,0.003 -0.088,0.024 -0.118,0.059 -1.684,2.064 -3.174,3.98 -4.615,5.831 -3.392,4.358 -6.321,8.122 -10.007,11.478 -0.063,0.057 -0.072,0.151 -0.019,0.217 0.053,0.065 0.146,0.08 0.215,0.032 11.71,-7.953 14.48,-16.65 14.693,-17.37 0.017,-0.028 0.027,-0.063 0.026,-0.096 -0.006,-0.088 -0.08,-0.154 -0.169,-0.151 M 16.472,-3.15 c -0.016,-0.005 -0.034,-0.008 -0.053,-0.006 -0.052,0.001 -0.105,0.031 -0.13,0.083 -0.055,0.101 -5.543,10.464 -4.875,26.261 0.004,0.079 0.066,0.145 0.146,0.148 0.071,0.008 0.149,-0.05 0.163,-0.129 0.654,-3.96 1.43,-7.635 2.182,-11.184 1.065,-5.037 2.07,-9.793 2.674,-15.007 0.012,-0.073 -0.034,-0.144 -0.107,-0.166 M -4.164,4.621 c -5.222,2.204 -10.594,5.442 -15.795,8.586 -2.105,1.273 -4.092,2.474 -6.025,3.58 -0.071,0.039 -0.099,0.124 -0.068,0.199 0.031,0.075 0.111,0.116 0.188,0.093 C -14.002,13.828 -5.929,6.858 -4.052,5.122 -3.738,4.829 -3.728,4.471 -4.164,4.621 m 2.95,-16.593 c -0.067,-0.012 -6.816,-1.095 -16.478,-0.573 v 0 c -3.142,0.17 -6.278,0.494 -9.323,0.959 -0.084,0.012 -0.143,0.084 -0.137,0.167 0.004,0.082 0.071,0.146 0.153,0.15 1.162,0.04 2.276,0.087 3.363,0.13 4.961,0.204 9.244,0.379 15.176,0.059 2.282,-0.124 4.648,-0.313 7.236,-0.576 0.079,-0.007 0.141,-0.073 0.144,-0.154 0.001,-0.081 -0.056,-0.149 -0.134,-0.162 m 47.638,-24.805 c -8.99,8.805 -12.125,24.332 -12.156,24.492 -0.015,0.081 0.032,0.161 0.112,0.184 0.076,0.024 0.161,-0.019 0.193,-0.095 2.542,-6.428 5.133,-10.932 7.642,-15.284 1.598,-2.774 3.245,-5.642 4.862,-8.975 0.256,-0.567 -0.186,-0.766 -0.653,-0.322 m 9.038,-17.807 c -0.007,0.001 -0.109,0.003 -0.109,0.003 -1.843,0.02 -3.711,-1.152 -4.641,-2.327 -0.026,-0.032 -0.066,-0.053 -0.109,-0.059 -0.008,-0.002 -0.016,-0.002 -0.025,0 -0.033,0.002 -0.072,0.014 -0.093,0.035 -0.403,0.403 -0.537,0.546 -1.039,0.857 -0.061,0.037 -0.077,0.136 -0.038,0.204 0.938,1.616 2.661,2.608 4.391,2.509 0.714,-0.042 1.382,-0.272 1.914,-0.625 0.067,-0.043 0.148,-0.103 0.191,-0.149 0.222,-0.239 0.062,-0.484 -0.442,-0.448"
         style="fill:#acbf2f;fill-opacity:1;fill-rule:nonzero;stroke:none"
         id="path874"
         inkscape:connector-curvature="0" />
    </g>
    <g
       id="g876"
       transform="matrix(0.38755274,0,0,-0.38755274,21.6558,-36.422576)"
       style="fill:#534f48;fill-opacity:1">
      <path
         d="M 0,0 C 0,2.067 1.677,3.745 3.745,3.745 5.814,3.745 7.49,2.067 7.49,0 7.49,-2.069 5.814,-3.744 3.745,-3.744 1.677,-3.744 0,-2.069 0,0 m -25.45,-22.446 v 19.129 c 0,14.454 6.751,16.016 9.654,16.017 4.601,0 9.242,-4.38 9.242,-14.16 0,-15.15 -7.778,-27.965 -10.527,-32.016 2.027,-4.236 5.116,-4.236 6.622,-4.236 6.375,0 10.025,4.448 11.311,6.381 -0.258,1.647 -0.4,3.501 -0.4,5.589 v 15.89 c 0,0.379 0.307,0.687 0.686,0.687 h 5.145 c 0.38,0 0.687,-0.308 0.687,-0.687 v -15.89 c 0,-7.941 2.19,-11.97 6.51,-11.97 2.921,0 5.106,2.018 6.422,3.712 0.152,0.195 0.393,0.298 0.637,0.258 0.244,-0.034 0.451,-0.196 0.542,-0.424 0.801,-2 1.477,-3.831 2.01,-5.44 0.087,-0.253 0.015,-0.535 -0.182,-0.718 -2.801,-2.595 -5.971,-3.91 -9.429,-3.91 -2.515,0 -7.219,0.802 -10.23,5.75 -2.861,-2.808 -7.308,-5.75 -13.709,-5.75 -6.839,0 -14.991,3.781 -14.991,21.788 m 6.518,-2.034 c 0,-0.411 0.005,-0.818 0.014,-1.215 2.888,5.716 5.847,15.69 5.847,24.235 0,5.088 -1.746,7.642 -2.724,7.643 -1.512,-10e-4 -3.137,-2.974 -3.137,-9.5 z M -54.02,-45.175 c 0.288,0 0.581,0.005 0.873,0.014 7.212,0.23 13.284,3.165 17.558,8.489 4.249,5.294 6.355,12.495 6.088,20.832 -0.53,16.609 -8.909,27.341 -21.344,27.341 -0.248,0 -0.497,-0.006 -0.745,-0.014 -3.647,-0.116 -6.788,-1.34 -9.085,-3.538 -2.364,-2.262 -3.604,-5.411 -3.493,-8.868 0.123,-3.88 2.151,-7.32 5.419,-9.201 1.238,-0.714 3.317,-1.563 6.183,-1.563 2.545,0 5.273,0.667 8.107,1.98 0.333,0.155 0.486,0.543 0.349,0.881 l -1.943,4.775 c -0.071,0.175 -0.211,0.313 -0.387,0.382 -0.177,0.066 -0.373,0.061 -0.544,-0.022 -3.476,-1.66 -6.504,-1.943 -8.513,-0.785 -1.319,0.759 -2.104,2.129 -2.157,3.761 -0.051,1.607 0.463,2.973 1.485,3.952 1.118,1.07 2.771,1.668 4.787,1.733 0.161,0.006 0.323,0.007 0.482,0.007 8.636,0 14.478,-8.254 14.885,-21.03 0.211,-6.603 -1.32,-12.219 -4.428,-16.241 -3.077,-3.985 -7.541,-6.183 -12.911,-6.353 -0.221,-0.008 -0.468,-0.028 -0.653,-0.012 -11.822,0 -17.537,10.284 -17.841,19.832 -0.276,8.637 3.134,14.356 5.191,16.997 0.151,0.194 0.188,0.454 0.096,0.68 l -2.161,5.313 c -0.086,0.213 -0.272,0.367 -0.497,0.413 -0.223,0.044 -0.454,-0.023 -0.618,-0.181 -1.503,-1.471 -8.97,-9.521 -8.525,-23.432 0.492,-15.386 10.5,-26.14 24.34,-26.142 z m 67.867,34.978 c -0.122,0.211 -0.124,0.473 -10e-4,0.686 0.122,0.213 0.349,0.346 0.595,0.346 h 5.91 c 0.251,0 0.482,-0.139 0.603,-0.358 2.437,-4.464 7.121,-14.236 11.381,-26.634 6.992,9.735 9.055,18.583 6.306,25.978 -0.065,0.176 -0.055,0.373 0.029,0.543 0.082,0.169 0.232,0.297 0.412,0.353 l 5.116,1.574 c 0.299,0.088 0.606,-0.042 0.787,-0.297 2.097,-2.968 5.258,-6.256 7.957,-8.317 2.938,6.164 8.139,9.893 14.545,9.893 7.209,0 12.242,-4.437 12.242,-10.789 0,-6.55 -5.602,-11.124 -13.622,-11.124 -2.899,0 -5.855,0.738 -8.806,1.998 0.032,-5.692 3.264,-11.364 10.44,-11.364 6.364,0 9.616,2.919 12.402,5.905 0.159,0.171 0.394,0.25 0.625,0.206 0.23,-0.043 0.423,-0.2 0.511,-0.415 l 2.108,-5.193 c 0.106,-0.262 0.043,-0.56 -0.161,-0.756 -2.821,-2.692 -7.493,-6.268 -15.485,-6.268 -9.984,0 -16.958,7.259 -16.958,17.867 0,1.179 0.099,2.489 0.272,3.666 -1.499,1.057 -3.546,2.85 -4.803,4.16 -0.795,-8.635 -5.406,-17.019 -11.689,-25.028 -0.134,-0.171 -0.334,-0.277 -0.55,-0.277 h -5.375 c -0.301,0 -0.569,0.196 -0.657,0.485 -5.332,17.397 -12.166,29.779 -14.134,33.16 m 44.678,-9.681 c 2.583,-1.316 5.137,-1.947 7.582,-1.947 2.638,0 7.104,0.969 7.104,4.606 0,3.963 -4.381,4.27 -5.724,4.27 -3.961,0 -7.206,-2.538 -8.962,-6.929 M -7.434,-70.779 h -5.147 c -0.376,0 -0.684,-0.307 -0.684,-0.687 0,-10.642 -6.318,-21.416 -18.391,-21.416 -10.026,0 -16.507,7.409 -16.507,18.875 0,10.444 5.876,21.682 18.773,21.682 4.856,0 10.525,-2.168 10.525,-8.281 0,-2.965 -1.699,-5.63 -4.544,-7.128 -0.31,-0.163 -0.447,-0.533 -0.317,-0.858 l 1.899,-4.826 c 0.071,-0.176 0.21,-0.315 0.387,-0.387 0.176,-0.067 0.373,-0.062 0.546,0.019 5.353,2.537 8.546,7.464 8.546,13.18 0,8.713 -7.008,14.798 -17.042,14.798 -17.376,0 -25.29,-14.617 -25.29,-28.199 0,-15.186 9.252,-25.392 23.024,-25.392 8.792,0 14.831,4.659 18.391,9.935 v -6.532 c 0,-13.62 -5.888,-13.67 -8.401,-13.67 -1.972,0 -3.738,0.684 -5.244,2.03 -0.166,0.148 -0.393,0.204 -0.612,0.158 -0.218,-0.052 -0.397,-0.203 -0.48,-0.41 l -2.009,-4.939 c -0.12,-0.298 -0.02,-0.638 0.242,-0.821 2.409,-1.683 5.134,-2.534 8.103,-2.534 6.804,0 14.918,3.491 14.918,20.135 v 24.284 c 0,0.01 -0.007,0.017 -0.007,0.027 0.002,0.091 0.007,0.18 0.007,0.27 0,0.38 -0.308,0.687 -0.686,0.687 m 93.216,-37.986 c 0.077,-0.189 0.067,-0.402 -0.03,-0.582 -0.098,-0.181 -0.269,-0.309 -0.47,-0.348 -2.514,-0.513 -4.951,-0.773 -7.243,-0.773 -5.714,0 -10.616,1.554 -14.571,4.617 -6.184,4.788 -9.451,12.792 -9.451,23.15 v 10.383 c 0,0.896 -0.172,1.533 -0.498,1.84 -0.518,0.49 -1.142,0.552 -2.394,0.483 -2.939,-0.171 -5.563,0.216 -7.779,0.859 0.346,-2.82 0.516,-6.071 0.516,-9.585 0,-13.241 -3.765,-19.956 -11.189,-19.956 -2.455,0 -6.296,1.218 -8.794,6.028 -2.797,-3.455 -6.422,-6.025 -11.533,-6.025 -9.401,0 -15.475,7.166 -15.475,18.254 0,11.089 6.074,18.255 15.475,18.255 3.634,0 6.867,-1.231 9.441,-3.385 v 1.84 c 0,0.381 0.308,0.687 0.685,0.687 h 5.147 c 0.379,0 0.685,-0.306 0.685,-0.687 v -18.75 c 0,-3.623 0.568,-9.699 4.369,-9.699 4.064,0 4.671,8.419 4.671,13.438 0,8.419 -0.974,12.474 -2.152,16.546 -0.103,0.36 0.1,0.737 0.457,0.847 l 5.091,1.568 c 0.339,0.099 0.701,-0.067 0.836,-0.396 0.92,-2.242 3.503,-3.378 7.679,-3.378 0.469,0 0.967,0.016 1.491,0.046 2.985,0.176 5.507,-0.608 7.244,-2.248 1.16,-1.093 2.544,-3.124 2.544,-6.582 v -10.383 c 0,-8.267 2.393,-14.489 6.924,-17.997 2.784,-2.154 6.351,-3.247 10.599,-3.247 1.578,0 3.259,0.155 4.994,0.458 0.32,0.057 0.633,-0.117 0.755,-0.416 z M 21.501,-80.42 c 0,5.652 -2.864,11.737 -9.155,11.737 -8.312,0 -8.959,-8.984 -8.959,-11.737 0,-2.754 0.647,-11.736 8.959,-11.736 6.291,0 9.155,6.084 9.155,11.736 m 157.603,-13.761 c -1.971,-1.89 -4.907,-4.493 -9.624,-4.493 -6.495,0 -10.374,4.564 -10.374,12.207 v 10.159 c 0,5.967 -2.178,7.136 -5.939,7.136 -4.996,0 -9.543,-6.125 -9.543,-12.85 v -15.219 c 0,-0.377 -0.306,-0.686 -0.686,-0.686 h -5.146 c -0.379,0 -0.686,0.309 -0.686,0.686 v 7.009 c -2.971,-3.687 -7.881,-8.442 -16.223,-8.442 -5.068,0 -9.09,1.697 -12.042,4.579 -2.074,-2.416 -5.182,-4.277 -8.645,-4.277 -3.514,0 -6.407,2.152 -8.261,5.73 -2.776,-3.478 -6.558,-6.032 -11.644,-6.032 -9.401,0 -15.476,7.166 -15.476,18.254 0,11.089 6.075,18.255 15.476,18.255 3.972,0 6.948,-1.462 9.518,-3.601 v 19.48 c 0,0.378 0.307,0.686 0.687,0.686 h 5.145 c 0.38,0 0.685,-0.308 0.685,-0.686 v -36.972 c 0,-5.466 1.453,-8.587 4.139,-8.587 2.086,0 3.51,1.634 4.707,2.98 -0.932,2.366 -1.657,5.027 -1.657,8.445 0,10.577 6.943,18.255 16.509,18.255 7.699,0 11.855,-5.433 11.855,-10.541 0,-3.901 -1.869,-7.31 -5.129,-9.354 -2.243,-1.406 -4.934,-2.119 -8.002,-2.119 -2.701,0 -5.588,0.553 -8.595,1.648 0.468,-4.014 2.541,-9.625 10.476,-9.625 9.997,0 15.046,8.56 16.477,12.542 v 15.855 c 0,0.38 0.307,0.686 0.686,0.686 h 5.146 c 0.38,0 0.686,-0.306 0.686,-0.686 v -2.922 c 2.709,2.504 6.038,4.025 9.543,4.025 4.653,0 12.457,-1.772 12.457,-13.652 v -10.159 c 0,-5.689 2.605,-5.689 3.856,-5.689 2.54,0 4.231,1.735 6.506,4.086 0.167,0.172 0.392,0.273 0.632,0.234 0.237,-0.036 0.438,-0.196 0.527,-0.418 l 2.108,-5.184 c 0.105,-0.256 0.048,-0.552 -0.149,-0.743 m -68.372,18.436 c 2.871,-1.255 5.634,-1.917 8.021,-1.917 1.82,0 3.346,0.379 4.534,1.124 1.377,0.863 2.075,2.151 2.075,3.832 0,1.939 -1.671,4.023 -5.338,4.023 -4.506,0 -7.864,-2.564 -9.292,-7.062 M 89.447,-80.42 c 0,5.842 -2.831,11.737 -9.156,11.737 -8.313,0 -8.959,-8.984 -8.959,-11.737 0,-2.754 0.646,-11.736 8.959,-11.736 6.325,0 9.156,5.893 9.156,11.736"
         style="fill:#534f48;fill-opacity:1;fill-rule:nonzero;stroke:none"
         id="path878"
         inkscape:connector-curvature="0" />
    </g>
  </g>
</svg>
